<svg width="280" height="67" viewBox="0 0 280 67" fill="none" xmlns="http://www.w3.org/2000/svg">
<g clip-path="url(#clip0_2437_629)">
<path d="M16.1862 60.6948C14.6336 60.8676 13.081 61.0588 11.5284 61.2069C9.67625 61.3796 7.82413 61.3858 5.97201 61.1082C4.70059 60.9169 3.48418 60.5591 2.40225 59.8435C0.898551 58.8563 0.0488997 57.4497 0.201715 55.6174C0.281179 54.655 0.525683 53.674 0.861876 52.761C1.47925 51.0829 2.49394 49.6084 3.67979 48.2881C5.05512 46.7581 6.52826 45.3083 7.98306 43.8523C8.67378 43.1613 9.41341 42.5259 10.0797 41.9151C9.89019 40.7799 9.05888 40.3419 8.40483 39.7866C6.38767 38.053 4.56 36.1467 2.92794 34.0367C1.96214 32.7843 1.11861 31.4579 0.556246 29.9711C-0.916892 26.0782 0.568471 23.0922 4.52944 22.0063C6.82778 21.3771 9.1689 21.3586 11.5161 21.6115C17.3904 22.247 22.9834 23.9744 28.4542 26.1584C28.7109 26.2633 28.9187 26.4977 29.151 26.6704C27.4517 26.6704 25.7585 26.6704 24.0592 26.6704C21.9015 25.4304 19.4625 25.1096 17.1092 24.542C13.8756 23.7585 10.5809 23.413 7.24343 23.6351C6.0637 23.7153 4.92064 23.925 3.86316 24.4865C2.41448 25.2576 1.77265 26.5779 2.20665 28.1881C2.45727 29.1259 2.84236 30.0698 3.35582 30.8842C5.41576 34.1478 7.98917 36.9425 11.1738 39.1389C12.1457 40.3851 13.3744 41.292 14.9514 42.1125C15.0553 41.3413 15.1348 40.7861 15.2082 40.2308C15.3182 39.3795 14.9514 38.4664 15.5138 37.6705C16.0456 37.4361 16.5896 37.2202 17.1092 36.9549C18.4478 36.2701 19.8721 36.0788 21.3574 36.085C22.7511 36.085 24.047 36.4675 25.3245 36.961C27.3233 37.7384 29.3099 38.5281 31.3088 39.2993C35.4042 40.8786 34.469 40.6936 38.5766 39.4843C39.7869 39.1265 41.0033 38.7317 42.2381 38.5281C44.9093 38.0962 47.4705 38.5343 49.8788 39.7928C49.9155 40.7799 49.9522 41.767 49.9889 42.748C49.451 43.3032 49.1514 44.0374 48.4118 44.4507C46.0279 45.7895 43.6868 47.2085 41.3334 48.6028C39.9581 49.411 38.5277 49.8737 36.8896 49.8181C34.1572 49.7256 31.4188 49.7811 28.6864 49.8058C28.1119 49.8058 27.5067 49.8922 26.9871 50.1081C26.706 50.2253 26.4859 50.6819 26.4126 51.0273C26.3698 51.2371 26.5959 51.6196 26.8099 51.7492C27.7145 52.3168 28.6742 52.798 29.5789 53.3656C29.9273 53.5815 30.074 53.9517 29.4872 54.3527C29.0288 54.1491 28.497 53.9208 27.9774 53.674C24.7194 52.1008 21.5164 50.4289 18.4906 48.4177C17.5737 47.8069 16.6079 47.3689 15.4771 47.4491C15.3732 46.8815 15.3182 46.2954 15.1531 45.7401C15.0492 45.3823 14.8658 44.9813 14.5969 44.7592C13.7167 44.0559 12.8548 43.3032 11.8095 42.7665C11.565 43.1058 11.4061 43.3279 11.2411 43.5562C10.9721 43.6672 10.6604 43.7289 10.4403 43.9078C7.47571 46.2214 4.95732 48.9482 3.01962 52.1934C2.76901 52.6129 2.56118 53.0633 2.38391 53.5198C1.31421 56.3084 2.1822 58.1345 4.98177 58.9921C5.07346 59.0229 5.16515 59.0661 5.26295 59.0784C8.17255 59.4856 11.076 59.6831 13.9367 58.77C15.5321 58.9366 17.0236 58.369 18.5579 58.1037C18.7474 58.116 18.9491 58.0975 19.1263 58.1469C19.3831 58.2209 19.7682 58.2888 19.8537 58.4738C20.0616 58.9242 19.6704 59.0784 19.3219 59.2512C18.4845 59.6707 17.4331 59.609 16.7546 60.3864C16.5652 60.4789 16.3757 60.5715 16.1923 60.664L16.1862 60.6948Z" fill="#EC6B1A"/>
<path d="M138.181 42.4272C136.274 42.1125 134.734 42.2606 133.096 42.2359C133.004 42.9022 132.857 43.4698 132.851 44.0312C132.827 47.2825 132.839 50.5338 132.839 53.7851C132.839 54.7661 132.839 55.747 132.839 56.7464C131.598 57.5917 130.376 57.2215 129.343 57.1351C129.086 56.9254 128.994 56.876 128.945 56.7958C128.896 56.7156 128.89 56.6107 128.878 56.512C128.854 56.3146 128.823 56.1233 128.823 55.9259C128.799 51.595 128.774 47.2579 128.744 42.9269C128.744 42.8344 128.701 42.7418 128.634 42.4765C127.973 42.3408 127.246 42.1866 126.439 42.0138C126.207 40.9527 126.152 39.9162 126.555 38.8551C127.283 38.7502 127.943 38.6577 128.597 38.5651C129 37.4608 128.799 36.3688 128.805 35.2953C128.823 30.5079 131.647 28.5213 135.889 28.6385C136.274 28.6509 136.672 28.7126 137.038 28.8236C137.521 28.9717 137.919 29.2616 137.931 29.8477C137.943 30.5202 137.931 31.1927 137.931 31.6677C137.43 32.3155 136.922 32.2106 136.446 32.26C135.865 32.3217 135.284 32.3957 134.722 32.5376C133.664 32.8029 133.041 33.5247 132.919 34.6105C132.772 35.8691 132.815 37.1338 132.888 38.2875C133.206 38.4788 133.365 38.6453 133.53 38.6515C134.978 38.7255 136.427 38.7996 137.925 38.596C138.395 37.4917 138.133 36.3997 138.169 35.3447C138.206 34.2527 138.243 33.1545 138.732 32.1736C139.074 31.4826 139.514 30.8163 140.027 30.2426C140.847 29.3233 141.996 28.984 143.163 28.7866C144.508 28.5583 145.865 28.3671 147.167 29.2246C147.21 29.6133 147.277 29.9958 147.295 30.3845C147.32 30.8719 147.295 31.3592 147.295 31.9577C146.843 32.0749 146.501 32.1983 146.146 32.2538C145.859 32.3032 145.559 32.2476 145.272 32.2847C142.772 32.5808 142.179 33.6172 142.204 35.7395C142.216 36.6156 142.216 37.4855 142.222 38.4602C143.536 38.9538 144.826 38.5528 146.11 38.8242C146.672 39.7928 146.427 40.854 146.354 42.0694C145.089 42.1557 143.848 42.2421 142.693 42.3161C142.118 42.7048 142.204 43.2292 142.204 43.6919C142.191 47.0419 142.197 50.3919 142.191 53.7419C142.191 54.7229 142.191 55.71 142.191 56.8205C141.702 56.9685 141.268 57.1906 140.828 57.2153C140.058 57.2585 139.282 57.1721 138.389 57.1413C137.961 54.6365 138.237 52.1934 138.188 49.7688C138.139 47.4121 138.175 45.0554 138.175 42.421L138.181 42.4272Z" fill="#F4F4F4"/>
<path d="M49.9889 42.7788C49.9522 41.7917 49.9155 40.8046 49.8788 39.8237C50.2028 35.4434 50.1111 32.7165 49.5915 31.0569C49.3226 31.0137 49.0353 30.9335 48.7541 30.9335C38.0082 30.9274 27.2683 30.9212 16.5224 30.9335C16.1556 30.9335 15.7888 31.0939 15.3548 31.1988C15.2632 33.4198 14.9636 35.5668 15.5138 37.7014C14.9514 38.4972 15.3182 39.4103 15.2081 40.2617C15.1348 40.817 15.0553 41.3722 14.9514 42.1434C13.3744 41.3167 12.1457 40.4159 11.1738 39.1697C11.2044 37.2017 11.2227 35.2274 11.2655 33.2594C11.3083 31.2112 11.131 29.1567 11.4183 26.9789C12.3047 26.9234 13.0626 26.837 13.8206 26.8247C17.2375 26.7692 20.6484 26.7383 24.0653 26.6951C25.7646 26.6951 27.4578 26.6951 29.1571 26.6951C31.8344 26.7075 34.5117 26.7198 37.1891 26.726C38.8823 26.726 40.5755 26.7198 42.2686 26.7136C49.3837 26.7321 56.5049 26.7507 63.62 26.7753V26.763C63.5588 27.1887 63.8584 27.2812 64.1701 27.3553C64.1884 29.0519 63.6872 30.5078 62.2569 31.5258C61.8167 31.1063 61.3094 30.9027 60.692 30.9088C59.0538 30.9274 57.4096 30.9088 55.7653 30.9212C55.3068 30.9212 54.8423 31.0014 54.2555 31.0569C53.9865 34.0799 54.0415 36.9734 54.2066 39.8669C53.3447 41.1439 52.0671 41.9213 50.8018 42.7048C50.6001 42.8344 50.27 42.7542 49.995 42.7727L49.9889 42.7788Z" fill="#F4F4F4"/>
<path d="M42.2564 26.7074C40.5632 26.7074 38.87 26.7136 37.1769 26.7198C37.3236 26.5964 37.4519 26.4236 37.6231 26.3496C43.3322 23.962 49.2003 22.1914 55.3741 21.5745C57.4218 21.3709 59.4756 21.4079 61.4806 21.9446C62.2263 22.1421 62.9843 22.4012 63.6628 22.7652C65.3376 23.6659 66.2484 25.1096 66.3523 27.0468C66.3951 27.8241 66.4257 28.6014 66.4623 29.3726C65.2643 30.2857 64.8425 31.6368 64.4696 33.0126C64.1823 33.2655 63.8461 33.4815 63.62 33.7776C61.3094 36.7944 58.5526 39.3486 55.6186 41.7177C55.0257 42.1989 54.5122 42.7788 53.9621 43.3155C52.9413 43.9942 51.8838 44.6235 50.9241 45.3823C50.5145 45.7093 50.3067 46.3015 50.0072 46.7704C49.4754 46.5545 48.9558 46.2152 48.3568 46.6038C47.8678 46.9185 47.3666 47.2146 46.8776 47.5293C42.776 50.1759 38.4911 52.4771 34.0044 54.3835C33.2892 54.6858 32.5068 54.8647 31.8344 55.2472C29.3466 56.6538 26.6387 57.4559 23.9492 58.3258C23.2157 58.5664 22.4333 58.6774 21.7059 58.9365C21.1068 59.1525 21.1863 59.6707 21.3635 60.1642C19.7437 60.1272 18.2094 60.5468 16.6935 61.0588L16.7363 61.102V60.4172C17.4148 59.6398 18.4662 59.7015 19.3036 59.282C19.652 59.1093 20.0432 58.955 19.8354 58.5047C19.7498 58.3196 19.3708 58.2579 19.108 58.1777C18.9307 58.1222 18.729 58.1468 18.5395 58.1345C18.3623 57.7088 18.2706 57.2091 17.9894 56.8698C17.4454 56.2035 16.8035 55.6174 16.1923 55.0066C15.6972 54.5131 15.3426 53.9578 15.3549 53.236C15.3793 51.3173 15.4221 49.3924 15.4588 47.4737C16.5896 47.3997 17.5554 47.8377 18.4723 48.4423C21.4919 50.4536 24.701 52.1255 27.959 53.6987C28.4786 53.9516 29.0104 54.1737 29.4689 54.3773C30.0557 53.9763 29.909 53.6061 29.5605 53.3902C28.6559 52.8226 27.6962 52.3414 26.7915 51.7738C26.5776 51.6381 26.3514 51.2618 26.3942 51.052C26.4676 50.7065 26.6937 50.25 26.9688 50.1328C27.4884 49.9168 28.0935 49.8366 28.6681 49.8305C31.4004 49.7996 34.1389 49.7441 36.8712 49.8428C38.5155 49.8983 39.9459 49.4356 41.3151 48.6274C43.6745 47.2393 46.0096 45.8203 48.3935 44.4754C49.1331 44.062 49.4326 43.3279 49.9705 42.7726C50.2395 42.7541 50.5696 42.8282 50.7774 42.7048C52.0366 41.9212 53.3141 41.1377 54.1821 39.8668C57.4096 37.8741 59.9402 35.1534 62.1224 32.0748C62.2202 31.9329 62.1957 31.7108 62.2324 31.5196C63.6689 30.5016 64.164 29.0456 64.1457 27.3491C64.0479 27.0714 64.3046 26.4483 63.5894 26.7568V26.7691C64.0112 26.5224 64.0112 26.183 63.8033 25.8005C63.1248 24.5605 61.9146 24.1224 60.6798 23.888C59.5429 23.6659 58.3692 23.6104 57.2078 23.6104C52.2016 23.6042 47.4093 24.7949 42.6965 26.3558C42.5254 26.4113 42.397 26.5902 42.2503 26.7136L42.2564 26.7074Z" fill="#F29A31"/>
<path d="M101.585 49.738C102.557 50.4474 103.413 51.0706 104.122 51.5888C104.373 52.3538 104.024 52.7301 103.719 53.1003C100.375 57.1783 95.9556 58.3628 91.0655 57.3017C86.1021 56.222 82.7585 52.9831 81.4504 47.9797C79.3782 40.0396 85.3808 32.2044 93.5289 32.0379C97.6794 31.9577 101.17 33.3828 103.804 36.6958C104.03 36.9796 104.165 37.3436 104.409 37.8001C103.499 38.5034 102.667 39.145 101.94 39.7065C100.944 39.6263 100.73 38.8551 100.265 38.3985C97.5449 35.721 93.9568 34.9313 90.5643 36.4552C87.0985 38.0099 85.4419 40.8293 85.2952 44.6235C85.0935 49.8552 89.0789 54.1244 94.4336 53.927C96.4569 53.853 98.2478 53.1373 99.7393 51.7492C100.375 51.1569 100.919 50.4721 101.585 49.7441V49.738Z" fill="#F4F4F4"/>
<path d="M203.281 57.0858C201.838 57.277 200.701 57.3881 199.735 57.0796C199.21 56.4997 199.32 55.9876 199.32 55.5126C199.308 52.8474 199.32 50.1883 199.308 47.5231C199.308 46.7335 199.308 45.9376 199.191 45.1664C198.898 43.2909 197.413 42.1002 195.475 42.0817C193.519 42.0632 191.936 43.1799 191.551 44.9628C191.367 45.8204 191.331 46.7211 191.318 47.6033C191.288 49.9724 191.306 52.3353 191.306 54.7044C191.306 55.3892 191.306 56.0678 191.306 56.5305C190.848 57.2215 190.365 57.2523 189.864 57.2523C189.185 57.2523 188.507 57.2523 187.724 57.2523C187.59 56.8081 187.382 56.4565 187.382 56.111C187.382 47.3319 187.4 38.5528 187.412 29.7799C187.412 29.6873 187.461 29.5948 187.535 29.311C188.555 28.8915 189.699 29.1259 190.744 29.1444C191.331 29.5084 191.294 30.0266 191.294 30.5079C191.3 32.8769 191.294 35.2398 191.306 37.6089C191.306 38.2875 191.386 38.9723 191.441 39.8237C191.911 39.6633 192.296 39.6139 192.596 39.4227C193.8 38.6515 195.127 38.4541 196.514 38.4171C199.748 38.3245 202.474 40.1815 203.22 44.1546C203.256 44.3459 203.275 44.5495 203.275 44.7407C203.275 48.7755 203.275 52.8103 203.275 57.0981L203.281 57.0858Z" fill="#F4F4F4"/>
<path d="M164.398 49.2876C162.008 49.2876 159.771 49.2382 157.54 49.3122C155.437 49.3801 153.298 48.9914 151.226 49.5775C151.079 50.9101 151.813 51.7245 152.564 52.4895C153.408 53.3471 154.472 53.8344 155.676 53.9702C157.363 54.1676 158.983 53.9702 160.462 53.0633C160.951 52.7671 161.428 52.4587 161.972 52.1193C162.864 52.761 163.317 53.6 163.824 54.5686C162.656 56.1973 160.939 56.876 159.172 57.351C157.558 57.789 155.871 57.7459 154.239 57.3819C150.144 56.4626 147.161 52.9707 146.898 48.8804C146.599 44.241 148.915 40.3542 153.078 38.9291C157.797 37.3127 162.675 39.2252 164.301 44.0004C164.747 45.3145 164.777 46.5175 164.386 49.2876H164.398ZM160.468 45.9314C160.768 45.117 160.486 44.4076 160.034 43.7474C158.555 41.6066 155.554 41.1069 153.316 42.6493C152.167 43.4389 151.379 44.4816 151.201 45.9437C153.781 46.2954 158.341 46.2831 160.474 45.9314H160.468Z" fill="#F4F4F4"/>
<path d="M184.02 49.2505C182.418 49.269 180.964 49.2875 179.509 49.2937C178.14 49.2999 176.77 49.2752 175.401 49.2999C173.952 49.3307 172.498 49.158 171.183 49.4048C170.682 50.0155 170.902 50.4967 171.098 50.9101C171.978 52.7486 173.476 53.7357 175.456 53.9763C177.045 54.1737 178.58 53.964 179.992 53.1434C180.566 52.8103 181.141 52.471 181.789 52.0946C182.516 52.9275 183.109 53.6678 183.47 54.6611C182.272 56.1603 180.67 56.8944 178.971 57.3078C176.544 57.9001 174.124 57.7397 171.819 56.6168C168.2 54.8585 166.336 51.3111 166.489 47.4799C166.654 43.4883 169.276 40.0087 172.974 38.818C174.973 38.1764 177.033 38.1702 179.02 38.9044C183.121 40.4159 185.059 44.3026 184.008 49.2505H184.02ZM180.267 45.9375C180.493 44.7592 179.9 43.8769 179.166 43.0873C178.329 42.1804 177.198 41.8287 176.025 41.7732C174.735 41.7177 173.525 42.1002 172.547 42.9886C171.691 43.7659 170.884 44.6111 171 45.9314C173.353 46.2954 177.968 46.3015 180.273 45.9437L180.267 45.9375Z" fill="#F4F4F4"/>
<path d="M279.749 49.1765C278.16 49.3925 276.693 49.2691 275.244 49.2876C273.875 49.3061 272.506 49.2752 271.137 49.2938C269.688 49.3184 268.227 49.1889 266.925 49.374C266.357 49.96 266.565 50.4474 266.76 50.8608C267.689 52.8042 269.279 53.8036 271.387 54.001C272.885 54.1429 274.309 53.9085 275.636 53.1682C276.216 52.8412 276.791 52.4957 277.445 52.1132C278.203 52.8658 278.765 53.6247 279.144 54.6303C277.916 56.2344 276.21 56.9623 274.413 57.3695C272.396 57.8199 270.336 57.7644 268.356 56.9747C264.621 55.4879 262.549 52.6869 262.243 48.6953C261.956 44.9628 263.392 41.8843 266.546 39.8669C269.792 37.7939 273.221 37.7507 276.51 39.8237C279.45 41.6807 280.544 44.9011 279.756 49.1765H279.749ZM275.862 46.0116C276.216 45.1356 275.831 44.4446 275.422 43.7783C274.951 43.0071 274.26 42.4765 273.429 42.1495C270.715 41.0761 267.964 42.4025 266.827 44.8024C266.626 45.2281 266.467 45.7093 267.054 46.1905C269.651 46.1905 272.359 46.1905 275.067 46.1844C275.342 46.1844 275.611 46.0733 275.868 46.0178L275.862 46.0116Z" fill="#F4F4F4"/>
<path d="M215.653 38.4108C220.353 38.1271 225.439 42.0385 225.408 48.0166C225.372 54.1737 220.127 57.6841 215.616 57.6718C210.75 57.6533 206.092 53.4026 206.025 48.1277C205.958 42.6184 210.652 38.1764 215.659 38.417L215.653 38.4108ZM215.653 42.0755C212.48 42.094 210.102 44.6481 210.108 48.0352C210.108 51.3975 212.56 53.964 215.726 53.927C218.843 53.8899 221.441 51.1877 221.319 47.955C221.16 43.8585 218.116 41.9212 215.653 42.0755Z" fill="#F4F4F4"/>
<path d="M115.583 38.4047C121.158 38.1703 125.376 43.1922 125.327 48.0475C125.278 53.0818 120.871 57.7027 115.467 57.6533C110.424 57.6101 105.956 53.2237 105.889 48.0784C105.821 43.0564 110.094 38.1949 115.589 38.4047H115.583ZM121.213 48.3313C121.158 47.5971 121.152 47.301 121.115 47.011C120.761 44.4631 118.743 42.384 116.359 42.1125C113.713 41.8102 111.579 43.0688 110.485 45.5057C109.935 46.7273 109.886 47.992 110.094 49.2567C110.485 51.6566 112.454 53.5445 114.801 53.8776C117.172 54.2108 119.526 52.9769 120.541 50.725C120.932 49.8552 121.072 48.8619 121.213 48.3251V48.3313Z" fill="#F4F4F4"/>
<path d="M50.0133 46.7705C50.3128 46.3016 50.5207 45.7093 50.9302 45.3823C51.8899 44.6235 52.9474 43.9942 53.9682 43.3156C54.0537 44.0683 54.1393 44.8271 54.2371 45.6723C54.8484 45.7217 55.3191 45.7895 55.7897 45.7895C57.4462 45.8019 59.1089 45.6846 60.7532 45.8204C62.263 45.9438 63.3816 45.2466 64.4391 44.3829C64.7691 44.1114 65.0442 43.5624 65.0503 43.1367C65.0931 40.0951 65.0748 37.0474 65.0198 34.0059C65.0198 33.6728 64.6652 33.3458 64.4757 33.0188C64.8486 31.643 65.2704 30.2981 66.4684 29.3788C67.312 30.0266 68.1494 30.6744 68.9135 31.2605C69.2008 33.5247 69.2558 42.5321 69.0113 46.1288C67.3976 47.3381 65.7044 48.609 64.0112 49.8799C63.3449 49.9416 62.6786 50.0032 62.0062 50.0649C60.747 50.0156 59.4878 49.8922 58.2348 49.9477C56.9144 50.0032 55.5391 49.6022 54.2004 50.2685C54.1577 50.8793 54.1026 51.4592 54.0843 52.0453C54.0415 53.2175 54.0232 54.3897 53.9926 55.5619C53.1735 56.5182 52.3544 57.4683 51.5415 58.4307C51.4803 58.5047 51.4559 58.6096 51.4192 58.696C48.9436 58.5294 48.3751 58.3628 47.1343 57.4374C47.4582 56.3516 48.4302 55.7963 49.127 55.0252C49.671 54.4267 50.0683 53.816 50.0316 52.9646C49.9705 51.3173 49.9277 49.6639 49.8849 48.0167C49.9277 47.6033 49.9644 47.19 50.0072 46.7828L50.0133 46.7705Z" fill="#F4F4F4"/>
<path d="M240.293 38.923C241.442 38.6207 242.499 38.7194 243.41 38.7872C244.021 39.1944 244.021 39.6941 244.021 40.1815C244.021 43.2292 244.021 46.2831 244.021 49.3308C244.021 49.6269 243.997 49.9231 243.985 50.213C243.758 55.494 238.856 58.9798 233.239 57.1475C230.628 56.2961 229.009 54.4329 228.397 51.7184C228.226 50.9533 228.08 50.1698 228.073 49.3925C228.037 46.2461 228.055 43.0997 228.073 39.9471C228.073 39.6695 228.19 39.3918 228.245 39.1636C228.459 39.0217 228.605 38.8551 228.776 38.8304C229.736 38.6947 230.696 38.633 231.551 38.8674C232.077 39.2931 232.034 39.8052 232.034 40.2864C232.041 42.9454 232.034 45.5983 232.04 48.2573C232.04 48.9483 232.016 49.6393 232.083 50.3241C232.291 52.3291 233.764 53.7358 235.726 53.927C237.413 54.0936 239.437 53.0695 239.883 50.9842C240.048 50.2254 240.103 49.4295 240.115 48.6522C240.146 46.0918 240.115 43.5377 240.134 40.9774C240.134 40.2987 240.237 39.6263 240.293 38.9353V38.923Z" fill="#F4F4F4"/>
<path d="M259.987 41.2118C259.792 41.5141 259.621 41.8534 259.382 42.1433C259.015 42.5875 258.606 42.9947 258.154 43.4945C257.567 43.1798 257.066 42.9207 256.577 42.6369C255.433 41.9768 254.205 41.7732 252.915 41.9829C252.145 42.1063 251.583 42.5814 251.442 43.2107C251.301 43.8523 251.589 44.6049 252.249 44.9443C253.196 45.4378 254.211 45.8142 255.165 46.3015C256.289 46.8753 257.445 47.4305 258.484 48.14C259.67 48.9482 260.281 50.1389 260.366 51.6319C260.525 54.5439 259.077 56.4996 255.959 57.3757C252.487 58.3504 249.089 57.1659 246.472 54.1552C246.876 53.1743 247.585 52.4278 248.538 51.7553C249.278 52.2921 249.95 52.8288 250.672 53.2915C251.876 54.0689 253.221 54.2663 254.602 54.001C255.061 53.9146 255.525 53.674 255.898 53.384C256.644 52.8041 256.687 51.6258 255.978 51.0643C255.446 50.6448 254.847 50.2993 254.235 50.0094C253.361 49.5837 252.432 49.269 251.558 48.8372C250.776 48.4485 249.981 48.0475 249.284 47.5293C246.307 45.3021 247.023 41.1747 249.614 39.5152C249.938 39.3054 250.293 39.1327 250.653 38.9784C252.432 38.2134 254.29 38.2689 256.118 38.6576C257.665 38.9908 259.034 39.7558 260 41.2241L259.987 41.2118Z" fill="#F4F4F4"/>
<path d="M62.0062 50.0526C62.6725 49.9909 63.3388 49.9292 64.0112 49.8675C64.5063 50.8238 65.0198 51.7677 65.4904 52.7301C65.9733 53.7111 66.1689 54.766 66.1628 55.858C66.1506 57.203 65.7105 58.3751 64.6897 59.245C63.8095 60.0039 62.9781 60.7319 62.3791 61.8115C61.615 63.1873 59.7996 63.4834 58.6015 62.3853C57.6296 61.4907 56.6149 61.318 55.4352 61.2254C53.9865 61.1082 52.55 60.8614 51.1014 60.7072C50.4351 60.6393 49.7505 60.6702 49.0781 60.6578C48.2529 60.0656 47.2137 60.1026 46.3335 59.7262C45.3922 59.3191 44.6342 59.7139 43.809 59.9607C43.644 59.0846 43.0327 58.6219 42.2686 58.3505C40.8933 57.8631 39.4996 57.4312 38.1304 56.9315C37.5925 56.7341 37.0913 56.4318 36.5839 56.1541C36.2966 55.9937 36.2844 55.3151 36.5717 55.1177C37.1279 54.7352 37.6903 54.3403 38.2955 54.038C41.7857 52.3168 45.2577 50.5585 48.5218 48.4115C48.9069 48.1586 49.4326 48.1339 49.8972 48.0043C49.9461 49.6516 49.9828 51.305 50.0439 52.9522C50.0744 53.8036 49.6771 54.4144 49.1392 55.0128C48.4424 55.784 47.4644 56.3392 47.1465 57.4251C48.3874 58.3505 48.9558 58.517 51.4314 58.6836C53.3936 59.3623 55.4046 59.4548 57.4157 59.3191C57.7458 58.9674 57.9964 58.6713 58.2775 58.406C59.2311 57.5176 60.2947 57.2893 61.4867 57.8816C61.6578 57.968 61.829 58.079 62.0062 58.1469C62.6236 58.3751 63.1615 58.2394 63.5772 57.8014C64.0723 57.2832 64.329 56.66 64.3596 55.9506C64.4024 54.9511 64.2312 53.9948 63.7483 53.1126C63.186 52.0885 62.593 51.0767 62.0124 50.0588L62.0062 50.0526Z" fill="#F29A31"/>
<path d="M43.8029 59.9607C44.6281 59.7139 45.3861 59.3252 46.3274 59.7263C47.2076 60.1088 48.2468 60.0656 49.072 60.6578C47.2749 63.0146 44.9888 64.8777 43.0694 67H22.2927C20.41 65.0813 18.2706 63.3477 16.7057 61.0589C18.2217 60.5468 19.7559 60.1273 21.3758 60.1643L21.9565 60.5036C22.4822 61.4845 23.3135 62.1447 24.1387 62.774H41.1439C42.1342 61.8794 43.1489 61.1082 43.7785 59.9607H43.8029Z" fill="#F4F4F4"/>
<path d="M34.3406 23.8387C33.3443 24.2829 32.4702 23.8572 31.6144 23.4068C30.7342 22.9441 30.1046 22.21 29.6828 21.3154C28.8087 19.4707 29.0226 17.7001 30.3002 16.1454C31.321 14.8992 32.623 14.1157 34.3406 14.492C34.3406 17.6076 34.3406 20.7231 34.3406 23.8387Z" fill="#EC6B1A"/>
<path d="M34.1328 0C35.8627 0.043186 37.2808 1.59171 37.1585 3.30681C37.0424 4.94788 35.6732 6.26814 34.0717 6.28665C32.3235 6.30516 30.9053 4.88002 30.9053 3.10939C30.9053 1.38195 32.3846 -0.043186 34.1267 0.00616943L34.1328 0Z" fill="#F29A31"/>
<path d="M34.3406 23.8387C34.3406 20.7231 34.3406 17.6076 34.3406 14.492C36.1866 14.5167 37.4886 15.4544 38.2954 17.0585C39.0473 18.5577 39.0228 20.1247 38.161 21.5868C37.3174 23.0182 36.1316 23.9744 34.3467 23.8449L34.3406 23.8387Z" fill="#F29A31"/>
<path d="M44.2675 6.07688C45.5633 5.96583 46.4925 6.62596 47.2626 7.56988C47.9045 8.35957 48.1856 9.30349 48.149 10.3091C48.1001 11.4196 47.7333 12.4252 46.902 13.2026C46.0034 14.0354 44.9765 14.5167 43.7173 14.2575C43.7173 12.382 43.7296 10.5127 43.699 8.63719C43.6868 7.73029 43.8212 6.87274 44.2675 6.07688Z" fill="#F29A31"/>
<path d="M44.2675 6.07687C43.8212 6.87273 43.6868 7.73028 43.699 8.63719C43.7296 10.5065 43.7112 12.382 43.7173 14.2575C42.4031 14.4858 41.4618 13.8133 40.6855 12.8818C39.9764 12.0242 39.6219 11.0062 39.7136 9.87724C39.8114 8.76058 40.2393 7.77347 41.0889 7.03931C41.9936 6.24962 42.9838 5.65118 44.2675 6.08304V6.07687Z" fill="#EC6B1A"/>
<path d="M43.3078 20.1247C42.7393 20.1124 42.2625 19.5386 42.3481 18.9649C42.4215 18.4836 42.8249 18.0703 43.265 18.0271C43.8274 17.9716 44.3592 18.4651 44.3653 19.0451C44.3653 19.6435 43.8885 20.1309 43.3078 20.1247Z" fill="#EC6B1A"/>
<path d="M16.7485 60.4234V61.1082C16.559 60.9725 16.3695 60.8368 16.1862 60.701C16.3756 60.6085 16.5651 60.5159 16.7485 60.4234Z" fill="#F4F4F4"/>
<path d="M13.9306 58.807C13.0932 57.8631 12.2558 56.913 11.2839 55.8149C11.2655 51.8356 11.2533 47.7082 11.235 43.587C11.3939 43.3649 11.559 43.1367 11.8035 42.7974C12.8487 43.3341 13.7106 44.0868 14.5908 44.7901C14.8659 45.006 15.0431 45.4132 15.1471 45.771C15.306 46.3263 15.3671 46.9062 15.471 47.48C15.4343 49.3986 15.3977 51.3235 15.3671 53.2422C15.3549 53.964 15.7155 54.5193 16.2045 55.0128C16.8158 55.6236 17.4576 56.2035 18.0016 56.876C18.2828 57.2153 18.3745 57.715 18.5518 58.1407C17.0175 58.406 15.526 58.9798 13.9306 58.807Z" fill="#F4F4F4"/>
<path d="M63.6078 26.7568C64.3229 26.4483 64.0662 27.0714 64.164 27.3491C63.8523 27.275 63.5528 27.1825 63.6078 26.7568Z" fill="#1C2024"/>
<path d="M21.9504 60.5036L21.3697 60.1643C21.1924 59.6707 21.1129 59.1525 21.712 58.9366C22.4394 58.6775 23.2157 58.5664 23.9553 58.3258C26.6448 57.4559 29.3527 56.6539 31.8405 55.2473C32.5129 54.8647 33.2892 54.692 34.0105 54.3835C38.4972 52.4772 42.7821 50.176 46.8837 47.5293C47.3727 47.2147 47.8739 46.9185 48.3629 46.6039C48.962 46.2152 49.4815 46.5545 50.0133 46.7705C49.9705 47.1838 49.9339 47.5972 49.8911 48.0043C49.4265 48.1339 48.9008 48.1586 48.5157 48.4115C45.2516 50.5585 41.7796 52.3106 38.2893 54.038C37.6842 54.3342 37.128 54.7352 36.5656 55.1177C36.2783 55.3151 36.2905 55.9937 36.5778 56.1542C37.079 56.4379 37.5864 56.7341 38.1243 56.9315C39.4935 57.4312 40.8872 57.8631 42.2625 58.3505C43.0266 58.6219 43.6379 59.0785 43.8029 59.9607H43.7785C43.2161 59.825 42.6354 59.7386 42.0914 59.5473C40.4532 58.9674 38.7967 58.406 37.1952 57.7274C35.0497 56.8205 32.953 56.623 30.7342 57.5361C27.8735 58.7145 24.97 59.7879 21.9504 60.4974V60.5036Z" fill="#EC6B1A"/>
<path d="M21.9504 60.5036C24.97 59.7879 27.8735 58.7206 30.7342 57.5423C32.9531 56.6292 35.0497 56.8204 37.1952 57.7335C38.7967 58.4121 40.4471 58.9736 42.0914 59.5535C42.6354 59.7447 43.2161 59.8311 43.7785 59.9607C43.1489 61.1082 42.1342 61.8794 41.144 62.7739H24.1387C23.3135 62.1447 22.4822 61.4845 21.9565 60.5036H21.9504Z" fill="#F29A31"/>
</g>
<defs>
<clipPath id="clip0_2437_629">
<rect width="280" height="67" fill="white"/>
</clipPath>
</defs>
</svg>
