<svg width="459" height="109" viewBox="0 0 459 109" fill="none" xmlns="http://www.w3.org/2000/svg">
<g clip-path="url(#clip0_2445_517)">
<path d="M79.33 63.71C76.95 62.62 74.18 62.16 71.45 62.26C67.67 62.41 64.1 63.9 60.61 64.94C54.74 66.7 48.56 68.66 42.26 69.77V76.25H81.8V65.2C81.8 64.77 79.7 63.89 79.33 63.72V63.71Z" fill="url(#paint0_linear_2445_517)"/>
<path d="M81.8 68.08V87.8L67.43 102.17H39.22L24.85 87.8V62.25C24.85 61.7 26.95 60.59 27.32 60.38C29.7 59 32.47 58.41 35.2 58.55C38.98 58.74 42.55 60.62 46.04 61.94C57.27 66.19 69.59 71.45 81.8 68.09V68.08Z" fill="url(#paint1_linear_2445_517)"/>
<path d="M153.77 51.99C161.12 51.99 167.49 55.57 170.95 61.22L166.09 64.8C163.24 60.37 159.11 57.88 153.83 57.88C145.63 57.88 139.38 64.19 139.38 72.69C139.38 81.19 145.63 87.5 153.83 87.5C159.11 87.5 163.24 85.01 166.09 80.58L170.95 84.16C167.55 89.81 161.24 93.39 153.77 93.39C142.36 93.57 132.46 84.16 132.7 72.69C132.46 61.21 142.35 51.8 153.77 51.99Z" fill="white"/>
<path d="M189.05 62.25C197.73 62.07 205.08 69.35 204.9 77.79C205.08 86.23 197.73 93.58 189.05 93.39C180.49 93.57 173.14 86.23 173.33 77.79C173.15 69.23 180.49 62.13 189.05 62.25ZM189.11 68.08C183.83 68.08 179.82 72.33 179.82 77.86C179.82 83.39 183.83 87.51 189.05 87.51C194.27 87.51 198.34 83.26 198.34 77.86C198.34 72.46 194.27 68.08 189.11 68.08Z" fill="white"/>
<path d="M217.22 62.92H224.26V68.44H217.22V92.73H210.85V68.44H206.6V62.92H210.85V56.91C210.85 49.93 214.92 46.53 221.47 46.53C223.11 46.53 224.44 46.71 225.6 47.08V52.48C224.63 52.36 223.78 52.3 223.05 52.3C219.16 52.3 217.22 53.64 217.22 57.46V62.92Z" fill="white"/>
<path d="M232.52 62.92H239.56V68.44H232.52V92.73H226.15V68.44H221.9V62.92H226.15V56.91C226.15 49.93 230.22 46.53 236.77 46.53C238.41 46.53 239.74 46.71 240.9 47.08V52.48C239.93 52.36 239.08 52.3 238.35 52.3C234.46 52.3 232.52 53.64 232.52 57.46V62.92Z" fill="white"/>
<path d="M246.79 79.92C247.58 84.78 251.4 87.75 256.5 87.75C259.6 87.75 262.51 86.6 265.18 84.23L268.22 88.6C264.82 91.82 260.87 93.4 256.32 93.4C247.21 93.4 240.29 86.66 240.29 77.86C240.11 69.3 247.27 62.07 255.71 62.26C263.6 62.26 269.49 68.15 269.49 75.92C269.49 77.19 269.31 78.53 269 79.93H246.78L246.79 79.92ZM263.12 74.94C263.06 70.39 259.66 67.65 255.47 67.65C251.28 67.65 247.88 70.5 246.91 74.94H263.12Z" fill="white"/>
<path d="M278.97 79.92C279.76 84.78 283.58 87.75 288.68 87.75C291.78 87.75 294.69 86.6 297.36 84.23L300.4 88.6C297 91.82 293.05 93.4 288.5 93.4C279.39 93.4 272.47 86.66 272.47 77.86C272.29 69.3 279.45 62.07 287.89 62.26C295.78 62.26 301.67 68.15 301.67 75.92C301.67 77.19 301.49 78.53 301.18 79.93H278.96L278.97 79.92ZM295.3 74.94C295.24 70.39 291.84 67.65 287.65 67.65C283.46 67.65 280.06 70.5 279.09 74.94H295.3Z" fill="white"/>
<path d="M332.58 92.73H326.21V75C326.21 70.87 323.66 68.08 319.71 68.08C315.76 68.08 312.91 70.93 312.91 75V92.73H306.53V47.19H312.91V65.89C314.91 63.52 317.95 62.25 321.53 62.25C328.33 62.25 332.58 67.05 332.58 74.09V92.73Z" fill="white"/>
<path d="M352.86 62.25C361.54 62.07 368.89 69.35 368.71 77.79C368.89 86.23 361.54 93.58 352.86 93.39C344.3 93.57 336.95 86.23 337.14 77.79C336.96 69.23 344.3 62.13 352.86 62.25ZM352.92 68.08C347.64 68.08 343.63 72.33 343.63 77.86C343.63 83.39 347.64 87.51 352.86 87.51C358.08 87.51 362.15 83.26 362.15 77.86C362.15 72.46 358.08 68.08 352.92 68.08Z" fill="white"/>
<path d="M373.26 62.92H379.57V80.71C379.57 84.84 382.42 87.51 386.31 87.51C390.2 87.51 392.87 84.84 392.87 80.71V62.92H399.24V80.22C399.24 88.23 393.59 93.39 386.31 93.39C379.03 93.39 373.26 88.23 373.26 80.22V62.92Z" fill="white"/>
<path d="M406.59 83.62C409.2 86.35 411.81 87.87 414.97 87.87C417.7 87.87 419.77 86.72 419.77 84.53C419.77 82.77 418.5 82.04 415.58 80.83L412.54 79.56C407.26 77.37 404.77 75.07 404.77 70.88C404.77 65.54 409.2 62.26 415.27 62.26C419.58 62.26 422.98 63.78 425.59 66.87L422.13 70.82C420.25 68.88 417.76 67.78 415.15 67.78C412.54 67.78 411.08 68.75 411.08 70.63C411.08 72.15 412.11 72.94 415.03 74.15L417.88 75.3C423.53 77.67 426.02 80.1 426.02 84.29C426.02 87.14 424.99 89.39 422.86 91.03C420.74 92.61 418.12 93.4 414.97 93.4C409.87 93.4 405.62 91.09 402.95 87.63L406.59 83.62Z" fill="white"/>
<path d="M435.55 79.92C436.34 84.78 440.16 87.75 445.26 87.75C448.36 87.75 451.27 86.6 453.94 84.23L456.98 88.6C453.58 91.82 449.63 93.4 445.08 93.4C435.97 93.4 429.05 86.66 429.05 77.86C428.87 69.3 436.03 62.07 444.47 62.26C452.36 62.26 458.25 68.15 458.25 75.92C458.25 77.19 458.07 78.53 457.76 79.93H435.54L435.55 79.92ZM451.88 74.94C451.82 70.39 448.42 67.65 444.23 67.65C440.04 67.65 436.64 70.5 435.67 74.94H451.88Z" fill="white"/>
<path d="M103.36 43.6H18.34V90.51L25.47 97.64L27.94 100.11L36.51 108.68H70.13L88.3 90.51V80.91H104.12L113.07 74.76V51.02L103.36 43.6ZM81.8 87.8L67.43 102.17H39.22L24.85 87.8V50.1H81.8V87.8ZM106.56 71.32L102.09 74.4H88.31V50.11H101.16L106.56 54.23V71.33V71.32Z" fill="white"/>
<path d="M76.28 93.69C76.18 93.66 76.08 93.64 75.99 93.61L67.43 102.17H39.22L24.85 87.8V68.99C23.17 67.82 21.51 66.58 19.9 65.31L18.34 64.04V90.5L25.47 97.63L27.94 100.1L36.51 108.67H70.13L80.97 97.83L83.44 95.36C81.03 94.89 78.64 94.32 76.28 93.68V93.69Z" fill="white"/>
<path d="M76.28 93.69C76.18 93.66 76.08 93.64 75.99 93.61L67.43 102.17H39.22L24.85 87.8V68.99C23.17 67.82 21.51 66.58 19.9 65.31L18.34 64.04V90.5L36.51 108.67H70.13L79.49 99.31L80.97 97.83L81.95 96.85L83.45 95.35C81.04 94.88 78.65 94.31 76.29 93.67L76.28 93.69ZM102.15 78.04C101.08 76.77 99.95 75.55 98.78 74.4H95.22C96.98 76.08 98.65 77.83 100.2 79.69C100.53 80.1 100.85 80.5 101.16 80.91H104.12L104.28 80.8C103.61 79.86 102.88 78.95 102.15 78.05V78.04Z" fill="white"/>
<path d="M55.56 38.94C59.8623 38.94 63.35 35.4523 63.35 31.15C63.35 26.8477 59.8623 23.36 55.56 23.36C51.2577 23.36 47.77 26.8477 47.77 31.15C47.77 35.4523 51.2577 38.94 55.56 38.94Z" fill="url(#paint2_linear_2445_517)"/>
<path d="M78.68 16.51C78.68 20.29 75.61 23.36 71.83 23.36C68.05 23.36 64.98 20.29 64.98 16.51C64.98 12.73 68.05 9.66 71.83 9.66C75.61 9.66 78.68 12.73 78.68 16.51Z" fill="url(#paint3_linear_2445_517)"/>
<path d="M55.56 10.2C58.3767 10.2 60.66 7.91665 60.66 5.1C60.66 2.28335 58.3767 0 55.56 0C52.7434 0 50.46 2.28335 50.46 5.1C50.46 7.91665 52.7434 10.2 55.56 10.2Z" fill="url(#paint4_linear_2445_517)"/>
<g style="mix-blend-mode:multiply">
<path d="M81.94 96.87L80.96 97.85L79.48 99.33C78.15 99.04 76.83 98.71 75.51 98.37C74.86 98.19 74.22 98.03 73.59 97.82C73.12 97.69 72.66 97.56 72.19 97.41C62.9 94.71 53.95 91.05 45.33 86.79C38.27 83.23 31.39 79.27 24.84 74.77C22.63 73.26 20.45 71.68 18.33 70V65.87L19.89 67.14C21.5 68.41 23.16 69.65 24.84 70.82C31.77 75.77 39.16 80.08 46.77 83.92C55.69 88.41 64.98 92.28 74.58 95.03C75.05 95.18 75.51 95.31 75.98 95.44C76.08 95.47 76.18 95.49 76.27 95.52C78.14 96.02 80.03 96.48 81.93 96.89L81.94 96.87Z" fill="#CCCCCC"/>
</g>
<path d="M107.41 93.87C106.66 95.35 105.41 96.49 104.07 97.25C102.74 98.03 101.32 98.44 99.92 98.76C97.12 99.38 94.32 99.39 91.57 99.28C87.97 99.08 84.44 98.56 80.96 97.83C79.12 97.46 77.32 97.02 75.51 96.54C74.86 96.36 74.22 96.2 73.59 95.99C63.79 93.26 54.39 89.43 45.33 84.96C38.27 81.4 31.39 77.44 24.84 72.94C22.63 71.43 20.45 69.85 18.33 68.17C18.18 68.07 18.04 67.96 17.89 67.84C13.64 64.47 9.56002 60.86 6.01002 56.63C4.25002 54.5 2.58002 52.25 1.37002 49.6C0.770023 48.28 0.250023 46.88 0.0700227 45.3C-0.139977 43.75 0.0200227 42.01 0.790023 40.47C1.57002 38.92 2.89002 37.77 4.24002 37C5.61002 36.22 7.05002 35.8 8.45002 35.5C11.3 34.9 14.1 34.9 16.85 35.03C22.37 35.39 27.7 36.48 32.91 37.94C38.41 39.47 43.76 41.37 49 43.57H41.81C38.62 42.5 35.42 41.52 32.18 40.71C27.05 39.44 21.86 38.37 16.69 38.12C14.12 38.01 11.53 38.05 9.14002 38.59C6.75002 39.08 4.55002 40.18 3.71002 41.93C2.83002 43.64 3.29002 46.05 4.33002 48.24C5.36002 50.47 6.87002 52.57 8.51002 54.54C11.41 58.01 14.79 61.11 18.34 64.03L19.9 65.3C21.51 66.57 23.17 67.81 24.85 68.98C31.78 73.93 39.17 78.24 46.78 82.08C56.14 86.78 65.9 90.82 75.99 93.6C76.09 93.63 76.19 93.65 76.28 93.68C78.64 94.31 81.03 94.88 83.44 95.36C86.19 95.88 88.97 96.27 91.74 96.43C94.31 96.56 96.91 96.54 99.34 96.02C101.75 95.55 104.04 94.47 104.95 92.62C105.91 90.8 105.42 88.29 104.38 86.06C103.57 84.25 102.41 82.53 101.16 80.89H104.12L104.28 80.78C105.22 82.08 106.09 83.46 106.79 84.96C107.38 86.26 107.9 87.64 108.09 89.17C108.29 90.67 108.14 92.36 107.41 93.86V93.87Z" fill="url(#paint5_linear_2445_517)"/>
<path d="M88.31 69.55C86.18 71.16 84.01 72.69 81.8 74.15Z" fill="url(#paint6_linear_2445_517)"/>
<g style="mix-blend-mode:multiply">
<path d="M88.31 67.86V71.91C86.18 73.52 84.01 75.05 81.8 76.51C75.81 80.53 69.53 84.09 63.1 87.33C54.17 91.74 44.91 95.53 35.29 98.25C34.69 98.43 34.07 98.61 33.45 98.77C33.27 98.82 33.11 98.87 32.93 98.92C31.29 99.36 29.61 99.75 27.93 100.11L25.46 97.64C27.31 97.27 29.17 96.83 31.02 96.35C31.41 96.25 31.78 96.15 32.16 96.06C32.4 95.99 32.63 95.93 32.88 95.85C42.81 93.08 52.42 89.1 61.65 84.46C68.61 80.95 75.4 77.04 81.79 72.63C84 71.1 86.18 69.52 88.3 67.86H88.31Z" fill="#CCCCCC"/>
</g>
<path d="M81.8001 74.15C75.8101 78.17 69.53 81.73 63.1 84.97C53.6 89.66 43.7401 93.64 33.4501 96.41C33.2701 96.46 33.11 96.51 32.93 96.56C30.64 97.16 28.3101 97.7 25.9701 98.14C22.9801 98.73 19.9501 99.13 16.8601 99.3C14.1101 99.41 11.3301 99.4 8.51005 98.78C7.11005 98.45 5.70005 98.05 4.36005 97.27C3.04005 96.51 1.77005 95.37 1.04005 93.89C0.290051 92.39 0.150051 90.7 0.360051 89.2C0.540051 87.67 1.06005 86.29 1.66005 84.99C2.86005 82.4 4.52005 80.17 6.28005 78.06C9.83005 73.88 13.9101 70.3 18.1601 66.96C18.2301 66.91 18.2701 66.86 18.3401 66.83V69.91C14.7001 72.9 11.2101 76.11 8.25005 79.71C6.61005 81.71 5.08005 83.84 4.07005 86.1C3.01005 88.33 2.54005 90.83 3.48005 92.66C4.41005 94.51 6.69005 95.59 9.09005 96.06C11.5101 96.58 14.1201 96.6 16.7001 96.47C18.9501 96.34 21.2101 96.06 23.4501 95.66C25.9901 95.24 28.5101 94.67 31.0201 94.02C31.4101 93.92 31.7801 93.82 32.1601 93.73C42.3301 90.95 52.19 86.88 61.64 82.13C68.6 78.62 75.3901 74.71 81.7801 70.3C83.9901 68.77 86.1701 67.19 88.2901 65.53C88.3701 65.46 88.4401 65.42 88.5201 65.35C92.64 62.08 96.5901 58.56 99.9101 54.59C100.84 53.48 101.72 52.34 102.48 51.16C103.1 50.23 103.65 49.27 104.09 48.3C104.61 47.21 104.98 46.07 105.11 44.98C105.26 43.89 105.14 42.85 104.7 41.99C103.87 40.25 101.66 39.14 99.2801 38.65C96.8901 38.11 94.2801 38.06 91.7101 38.18C86.5401 38.42 81.3501 39.5 76.2401 40.77C73.0001 41.58 69.8001 42.54 66.6401 43.63H59.42C64.66 41.45 70.0101 39.53 75.5001 38C80.7201 36.54 86.0601 35.45 91.5601 35.09C94.3101 34.96 97.1101 34.96 99.9601 35.56C101.38 35.85 102.81 36.28 104.17 37.06C105.54 37.82 106.84 38.98 107.62 40.53C108.4 42.08 108.55 43.82 108.35 45.36C108.27 45.99 108.14 46.6 107.96 47.17C107.73 48.05 107.39 48.86 107.03 49.66C106.46 50.9 105.79 52.05 105.06 53.14C104.25 54.39 103.34 55.55 102.41 56.69C98.8501 60.92 94.76 64.53 90.5201 67.9C89.7901 68.49 89.0401 69.06 88.2901 69.59" fill="url(#paint7_linear_2445_517)"/>
<path d="M102.85 97.73C102.85 100.18 100.86 102.17 98.41 102.17C95.96 102.17 93.97 100.18 93.97 97.73C93.97 95.28 95.96 93.29 98.41 93.29C100.86 93.29 102.85 95.28 102.85 97.73Z" fill="url(#paint8_linear_2445_517)"/>
<path d="M70.86 29.22C69.91 29.22 69.14 29.99 69.14 30.94C69.14 31.89 69.91 32.66 70.86 32.66C71.81 32.66 72.58 31.89 72.58 30.94C72.58 29.99 71.81 29.22 70.86 29.22Z" fill="url(#paint9_linear_2445_517)"/>
</g>
<defs>
<linearGradient id="paint0_linear_2445_517" x1="68.13" y1="55.65" x2="61.55" y2="74.38" gradientUnits="userSpaceOnUse">
<stop offset="0.13" stop-color="#F76B15"/>
<stop offset="0.87" stop-color="#FBB03B"/>
</linearGradient>
<linearGradient id="paint1_linear_2445_517" x1="53.32" y1="67.21" x2="53.32" y2="100.37" gradientUnits="userSpaceOnUse">
<stop offset="0.13" stop-color="#F76B15"/>
<stop offset="0.87" stop-color="#FBB03B"/>
</linearGradient>
<linearGradient id="paint2_linear_2445_517" x1="47.77" y1="31.15" x2="63.35" y2="31.15" gradientUnits="userSpaceOnUse">
<stop offset="0.13" stop-color="#F76B15"/>
<stop offset="0.87" stop-color="#FBB03B"/>
</linearGradient>
<linearGradient id="paint3_linear_2445_517" x1="64.99" y1="16.51" x2="78.68" y2="16.51" gradientUnits="userSpaceOnUse">
<stop offset="0.13" stop-color="#F76B15"/>
<stop offset="0.87" stop-color="#FBB03B"/>
</linearGradient>
<linearGradient id="paint4_linear_2445_517" x1="50.46" y1="5.1" x2="60.67" y2="5.1" gradientUnits="userSpaceOnUse">
<stop offset="0.13" stop-color="#F76B15"/>
<stop offset="0.87" stop-color="#FBB03B"/>
</linearGradient>
<linearGradient id="paint5_linear_2445_517" x1="2.26754e-05" y1="67.17" x2="108.17" y2="67.17" gradientUnits="userSpaceOnUse">
<stop offset="0.13" stop-color="#F76B15"/>
<stop offset="0.87" stop-color="#FBB03B"/>
</linearGradient>
<linearGradient id="paint6_linear_2445_517" x1="81.8" y1="71.85" x2="88.31" y2="71.85" gradientUnits="userSpaceOnUse">
<stop offset="0.13" stop-color="#F76B15"/>
<stop offset="0.87" stop-color="#FBB03B"/>
</linearGradient>
<linearGradient id="paint7_linear_2445_517" x1="0.270051" y1="67.17" x2="108.45" y2="67.17" gradientUnits="userSpaceOnUse">
<stop offset="0.13" stop-color="#F76B15"/>
<stop offset="0.87" stop-color="#FBB03B"/>
</linearGradient>
<linearGradient id="paint8_linear_2445_517" x1="93.97" y1="97.73" x2="102.85" y2="97.73" gradientUnits="userSpaceOnUse">
<stop offset="0.13" stop-color="#F76B15"/>
<stop offset="0.87" stop-color="#FBB03B"/>
</linearGradient>
<linearGradient id="paint9_linear_2445_517" x1="69.13" y1="30.94" x2="72.58" y2="30.94" gradientUnits="userSpaceOnUse">
<stop offset="0.13" stop-color="#F76B15"/>
<stop offset="0.87" stop-color="#FBB03B"/>
</linearGradient>
<clipPath id="clip0_2445_517">
<rect width="458.26" height="108.68" fill="white"/>
</clipPath>
</defs>
</svg>
