<svg width="91" height="63" viewBox="0 0 91 63" fill="none" xmlns="http://www.w3.org/2000/svg">
<g clip-path="url(#clip0_2436_593)">
<path d="M45.499 36.7129C45.1967 36.6299 44.8974 36.5763 44.6183 36.4689C30.1655 30.8967 15.7137 25.3213 1.26287 19.744C1.05964 19.665 0.853369 19.582 0.670358 19.4646C-0.196164 18.9088 -0.228519 17.8305 0.607669 17.2322C0.796747 17.0966 1.01818 16.9994 1.23658 16.9153C15.6854 11.337 30.1372 5.76267 44.587 0.182287C45.2007 -0.0546159 45.7831 -0.0637276 46.4009 0.174188C60.884 5.76166 75.3692 11.3431 89.8544 16.9255C90.4934 17.1715 90.9818 17.5491 90.999 18.3044C91.0141 18.9533 90.6279 19.419 89.8362 19.7237C75.351 25.3072 60.8658 30.8906 46.3786 36.4689C46.0996 36.5763 45.8003 36.6299 45.499 36.7109V36.7129Z" fill="black"/>
<path d="M21.0736 28.6339C24.5175 29.9581 27.8632 31.2448 31.209 32.5326C35.5295 34.196 39.852 35.8513 44.1654 37.5329C45.0996 37.8974 45.9732 37.8842 46.9065 37.5218C54.3604 34.6293 61.8234 31.7591 69.2834 28.8819C69.4694 28.81 69.6575 28.7452 69.9345 28.645C69.9345 28.8697 69.9345 29.0459 69.9345 29.221C69.9345 34.6202 69.9153 40.0184 69.9467 45.4175C69.9568 47.2257 69.3046 48.6987 68.0195 49.9217C66.3704 51.4899 64.3583 52.4203 62.2491 53.1644C58.9407 54.3318 55.511 54.9301 52.0328 55.2733C47.1188 55.7572 42.2068 55.7147 37.308 55.0799C33.3849 54.5717 29.5366 53.7689 25.9633 51.9739C24.7055 51.3421 23.5468 50.5676 22.5933 49.5137C21.5771 48.391 21.0625 47.089 21.0675 45.5582C21.0837 40.1085 21.0736 34.6597 21.0746 29.2099C21.0746 29.0459 21.0746 28.8819 21.0746 28.6359L21.0736 28.6339Z" fill="black"/>
<path d="M3.36093 48.5671C4.63594 48.9751 4.9413 48.9761 6.38213 48.5813C6.61064 49.6504 6.84016 50.7165 7.06665 51.7836C7.69961 54.7691 8.31436 57.7578 8.97765 60.7363C9.09696 61.2728 8.9544 61.5816 8.55804 61.8924C7.77544 62.5049 6.88162 62.8279 5.91298 62.9322C4.17892 63.1195 2.51362 62.9767 1.0738 61.8276C0.721931 61.5462 0.60262 61.2728 0.708786 60.796C1.57733 56.8618 2.4115 52.9195 3.25679 48.9792C3.2851 48.8496 3.32251 48.722 3.36194 48.5671H3.36093Z" fill="black"/>
<path d="M4.15363 41.8286V22.0856C4.58234 22.2567 4.9888 22.3782 5.34674 22.5827C5.47919 22.6576 5.56109 22.929 5.5621 23.1112C5.57525 25.6898 5.5712 28.2694 5.5712 30.848C5.5712 34.3206 5.5712 37.7931 5.5712 41.2657C5.5712 41.4479 5.5712 41.6291 5.5712 41.8286H4.15363Z" fill="black"/>
<path d="M2.52072 45.3386C2.51465 44.0204 3.52576 42.9756 4.821 42.9625C6.1405 42.9483 7.20216 43.9941 7.20823 45.3133C7.2143 46.6527 6.1951 47.6985 4.87256 47.7117C3.55003 47.7248 2.52678 46.6922 2.52173 45.3376L2.52072 45.3386Z" fill="black"/>
</g>
<defs>
<clipPath id="clip0_2436_593">
<rect width="91" height="63" fill="white"/>
</clipPath>
</defs>
</svg>
